<!DOCTYPE svg PUBLIC "-//W3C//DTD SVG 1.1//EN" "http://www.w3.org/Graphics/SVG/1.1/DTD/svg11.dtd">
<!-- Uploaded to: SVG Repo, www.svgrepo.com, Transformed by: SVG Repo Mixer Tools -->
<svg fill="#7ed957" height="800px" width="800px" version="1.1" id="Layer_1" xmlns="http://www.w3.org/2000/svg" xmlns:xlink="http://www.w3.org/1999/xlink" viewBox="0 0 512 512" xml:space="preserve">
<g id="SVGRepo_bgCarrier" stroke-width="0"/>
<g id="SVGRepo_tracerCarrier" stroke-linecap="round" stroke-linejoin="round"/>
<g id="SVGRepo_iconCarrier"> <g> <g> <path d="M503.313,19.885c-15.568-15.567-46.491-10.194-91.912,15.971c-39.655,22.843-87.718,60.1-135.337,104.908 c-2.326,2.189-4.655,4.392-6.986,6.624c-6.102,5.842-12.144,11.751-17.958,17.565c-42.16,42.158-78.984,85.383-106.611,125.107 c-1.238,1.061-2.451,2.16-3.617,3.326c-9.928,9.928-16.109,22.593-17.877,36.291c-24.533-1.42-49.22,8.722-66.878,28.114 c-20.617,22.643-20.426,44.352-20.272,61.797c0.169,19.223,0.282,31.924-25.056,45.77c-9.612,5.253-11.153,11.804-10.753,16.373 c0.408,4.667,3.211,11.011,14.248,14.74c8.492,2.868,21.693,4.332,36.628,4.332c11.925,0,24.956-0.934,37.571-2.832 c26.031-3.917,61.394-13.344,82.035-36.013c15.768-17.317,23.727-39.615,22.495-61.714c13.884-1.682,26.733-7.891,36.778-17.935 c1.166-1.166,2.259-2.378,3.314-3.61c39.723-27.624,82.951-64.451,125.117-106.616c5.813-5.814,11.724-11.856,17.564-17.958 c2.233-2.332,4.436-4.661,6.626-6.987c44.807-47.62,82.065-95.683,104.907-135.337C513.507,66.376,518.88,35.452,503.313,19.885z M153.633,446.565c-13.21,14.507-40.156,25.275-73.928,29.543c-18.139,2.292-34.095,2.15-45.061,1.081 c24.435-18.504,24.25-39.229,24.085-57.803c-0.143-16.198-0.266-30.188,14.314-46.202c13.588-14.924,32.667-22.416,51.198-20.477 c2.269,9.408,6.698,18.152,13.032,25.645c0.36,0.428,0.725,0.852,1.097,1.271c0.214,0.24,0.429,0.48,0.646,0.717 c0.612,0.667,1.232,1.326,1.874,1.968c0.637,0.637,1.292,1.254,1.955,1.862c0.24,0.221,0.482,0.438,0.726,0.655 c0.405,0.36,0.815,0.712,1.229,1.061c7.374,6.245,15.959,10.655,25.202,12.963C171.744,415.723,165.877,433.117,153.633,446.565z M217.63,361.491c-0.139,0.189-0.289,0.373-0.432,0.56c-1.08,1.42-2.258,2.788-3.554,4.084 c-7.557,7.562-17.606,11.725-28.292,11.725c-1.333,0-2.657-0.065-3.967-0.193c-0.093-0.013-0.183-0.031-0.276-0.04 c-2.219-0.235-4.385-0.648-6.489-1.227c-0.125-0.034-0.249-0.067-0.373-0.103c-0.388-0.111-0.772-0.23-1.155-0.351 c-0.232-0.074-0.464-0.151-0.695-0.23c-0.302-0.103-0.604-0.208-0.903-0.318c-0.34-0.125-0.677-0.256-1.013-0.391 c-0.203-0.081-0.407-0.16-0.609-0.245c-0.533-0.223-1.062-0.456-1.585-0.702c-0.014-0.007-0.027-0.013-0.041-0.018 c-1.165-0.551-2.304-1.16-3.412-1.826c-0.024-0.014-0.047-0.029-0.07-0.043c-0.506-0.305-1.006-0.622-1.499-0.95 c-0.088-0.058-0.175-0.118-0.262-0.177c-0.425-0.287-0.845-0.584-1.261-0.889c-0.118-0.087-0.235-0.174-0.353-0.262 c-0.381-0.286-0.757-0.581-1.128-0.881c-0.13-0.106-0.263-0.21-0.392-0.318c-0.364-0.302-0.721-0.613-1.076-0.928 c-0.122-0.109-0.247-0.214-0.367-0.323c-0.464-0.423-0.921-0.856-1.37-1.304c-0.436-0.436-0.856-0.881-1.269-1.333 c-0.216-0.237-0.424-0.48-0.633-0.723c-0.177-0.202-0.354-0.405-0.527-0.61c-0.285-0.342-0.563-0.688-0.835-1.039 c-0.073-0.094-0.147-0.187-0.219-0.281c-4.509-5.9-7.325-12.986-8.045-20.417c-0.001-0.013-0.003-0.025-0.005-0.037 c-0.121-1.272-0.185-2.557-0.185-3.853c0-10.688,4.162-20.736,11.719-28.293c1.07-1.07,2.195-2.065,3.36-2.996 c0.431-0.345,0.865-0.684,1.307-1.008c0.018-0.014,0.037-0.025,0.055-0.039c1.057-0.775,2.144-1.488,3.251-2.146 c6.091-3.603,13.057-5.531,20.321-5.531c5.301,0,10.444,1.027,15.205,2.982c0.073,0.03,0.146,0.059,0.218,0.09 c0.484,0.202,0.961,0.416,1.437,0.637c0.133,0.062,0.265,0.122,0.397,0.185c0.416,0.199,0.827,0.408,1.235,0.622 c0.173,0.09,0.345,0.178,0.517,0.271c0.368,0.2,0.732,0.409,1.095,0.621c0.195,0.114,0.393,0.226,0.588,0.344 c0.338,0.205,0.67,0.421,1.003,0.636c0.207,0.135,0.416,0.265,0.622,0.404c0.32,0.216,0.634,0.444,0.949,0.669 c0.207,0.149,0.416,0.293,0.622,0.446c0.318,0.238,0.629,0.487,0.941,0.735c0.193,0.153,0.389,0.301,0.578,0.457 c0.336,0.277,0.663,0.567,0.991,0.856c0.159,0.139,0.321,0.272,0.478,0.415c0.481,0.437,0.953,0.886,1.416,1.349 c0.002,0.002,0.005,0.005,0.007,0.007c0.472,0.472,0.929,0.955,1.373,1.444c0.105,0.115,0.202,0.236,0.306,0.352 c0.342,0.386,0.68,0.775,1.005,1.171c0.087,0.105,0.168,0.215,0.254,0.321c0.34,0.423,0.673,0.848,0.992,1.281 c0.048,0.065,0.094,0.133,0.142,0.198c0.357,0.49,0.705,0.987,1.037,1.49c0.003,0.006,0.008,0.011,0.011,0.017 C227.9,329.686,227.52,348.009,217.63,361.491z M220.989,286.042c-0.298-0.206-0.592-0.421-0.894-0.622 c-0.448-0.298-0.907-0.577-1.36-0.863c-0.413-0.26-0.821-0.528-1.239-0.777c-0.551-0.329-1.11-0.636-1.668-0.947 c-0.327-0.182-0.649-0.373-0.98-0.549c-0.704-0.376-1.418-0.727-2.133-1.075c-0.185-0.09-0.368-0.188-0.554-0.276 c-8.455-4.001-17.624-6.026-26.818-6.026c-0.448,0-0.897,0.005-1.344,0.015c23.583-30.495,51.907-62.422,83.288-93.801 c2.865-2.866,5.788-5.756,8.748-8.65l8.016,50.508L220.989,286.042z M342.075,255.914c-31.381,31.381-63.307,59.705-93.802,83.289 c0.278-12.955-3.475-25.926-11.121-36.989l63.064-63.064l50.508,8.016C347.831,250.124,344.941,253.048,342.075,255.914z M467.529,100.385c-21.287,36.954-55.842,81.773-97.623,126.674l-49.711-7.889l106.283-106.283c4.464-4.464,4.464-11.703,0-16.169 c-4.464-4.464-11.703-4.464-16.169,0L304.027,203.001l-7.889-49.711c44.901-41.78,89.72-76.335,126.674-97.623 c42.133-24.272,60.505-23.445,64.332-19.615C490.973,39.88,491.8,58.253,467.529,100.385z"/> </g> </g> <g> <g> <path d="M453.281,78.883c-0.137-0.732-0.366-1.452-0.652-2.138c-0.286-0.686-0.629-1.349-1.052-1.966 c-0.411-0.629-0.892-1.212-1.418-1.738c-0.526-0.537-1.109-1.006-1.738-1.429c-0.617-0.412-1.28-0.766-1.966-1.052 c-0.697-0.286-1.418-0.503-2.149-0.652c-3.715-0.743-7.66,0.469-10.312,3.132c-0.526,0.526-1.006,1.109-1.418,1.738 c-0.412,0.617-0.766,1.28-1.052,1.966c-0.286,0.697-0.514,1.406-0.652,2.138c-0.149,0.743-0.229,1.486-0.229,2.241 c0,0.743,0.08,1.486,0.229,2.229c0.137,0.732,0.366,1.452,0.652,2.138c0.286,0.686,0.64,1.36,1.052,1.978 c0.411,0.617,0.892,1.212,1.418,1.738c2.126,2.126,5.076,3.35,8.083,3.35c0.743,0,1.498-0.08,2.229-0.229 c0.732-0.149,1.452-0.366,2.149-0.652c0.686-0.286,1.349-0.64,1.966-1.052c0.629-0.412,1.212-0.892,1.738-1.418 c0.526-0.526,1.006-1.12,1.418-1.738c0.423-0.617,0.766-1.292,1.052-1.978c0.286-0.686,0.514-1.406,0.652-2.138 c0.149-0.743,0.229-1.486,0.229-2.229C453.51,80.369,453.43,79.626,453.281,78.883z"/> </g> </g> </g>
</svg>