<!DOCTYPE svg PUBLIC "-//W3C//DTD SVG 1.1//EN" "http://www.w3.org/Graphics/SVG/1.1/DTD/svg11.dtd">
<!-- Uploaded to: SVG Repo, www.svgrepo.com, Transformed by: SVG Repo Mixer Tools -->
<svg fill="#7ed957" width="800px" height="800px" viewBox="0 0 512 512" version="1.1" xml:space="preserve" xmlns="http://www.w3.org/2000/svg" xmlns:xlink="http://www.w3.org/1999/xlink">
<g id="SVGRepo_bgCarrier" stroke-width="0"/>
<g id="SVGRepo_tracerCarrier" stroke-linecap="round" stroke-linejoin="round"/>
<g id="SVGRepo_iconCarrier"> <g id="Pickaxe"> <g id="XMLID_380_"> <path d="M302.141,125.591l20.172-20.173l-81.238-81.237c-21.544-21.544-54.532-26.392-81.108-13.271 c21.678,3.809,41.637,14.145,57.524,30.031L302.141,125.591z" id="XMLID_391_"/> <path d="M10.022,464.673c-5.069,4.752-7.899,11.143-8.011,18.034c-0.111,6.891,2.512,13.37,7.385,18.243 c4.773,4.774,11.088,7.388,17.822,7.388c0.14,0,0.279-0.001,0.42-0.004c6.891-0.111,13.282-2.941,17.996-7.969L155.74,384.249 l-29.644-29.644L10.022,464.673z" id="XMLID_392_"/> <polygon id="XMLID_393_" points="140.561,340.89 169.456,369.785 230.782,305.112 205.234,279.564 "/> <path d="M489.472,272.579l-84.546-84.546l-20.172,20.172l87.958,87.957 c15.887,15.887,26.222,35.847,30.032,57.525C515.865,327.114,511.018,294.123,489.472,272.579z" id="XMLID_394_"/> <rect height="76.981" id="XMLID_395_" transform="matrix(0.7071 -0.7071 0.7071 0.7071 -7.335 295.916)" width="76.981" x="315.043" y="118.321"/> <polygon id="XMLID_396_" points="219.698,265.849 244.497,290.648 322.498,208.389 301.956,187.847 "/> </g> </g> <g id="Layer_1"/> </g>
</svg>